<svg xmlns="http://www.w3.org/2000/svg" x="0px" y="0px"
width="60" height="60"
viewBox="0 0 172 172"
style=" fill:#000000;"><g fill="none" fill-rule="nonzero" stroke="none" stroke-width="1" stroke-linecap="butt" stroke-linejoin="miter" stroke-miterlimit="10" stroke-dasharray="" stroke-dashoffset="0" font-family="none" font-weight="none" font-size="none" text-anchor="none" style="mix-blend-mode: normal"><path d="M0,172v-172h172v172z" fill="none"></path><path d="M86,172c-47.49649,0 -86,-38.50351 -86,-86v0c0,-47.49649 38.50351,-86 86,-86v0c47.49649,0 86,38.50351 86,86v0c0,47.49649 -38.50351,86 -86,86z" fill="#1a92d4"></path><g><path d="M80.62213,101.61186c-4.04313,-3.60344 -9.27294,-5.58962 -14.6888,-5.57853h-16.05333c-5.85519,-0.0032 -11.47149,2.32135 -15.61173,6.4616c-4.14025,4.14025 -6.4648,9.75654 -6.4616,15.61173v20.06667c0,3.32475 2.69525,6.02 6.02,6.02h48.16c0.97692,-0.00454 1.93915,-0.23823 2.80933,-0.68227l3.21067,-3.33107v-32.10667z" fill="#db755d"></path><path d="M63.92667,89.09026v6.94307c0,3.32475 -2.69525,6.02 -6.02,6.02c-3.32475,0 -6.02,-2.69525 -6.02,-6.02v-6.94307z" fill="#d7aa91"></path><path d="M31.82,57.90666v-10.03333c0,-11.08251 8.98415,-20.06667 20.06667,-20.06667h19.22186c1.14937,0.00157 2.18477,0.69495 2.62387,1.75714c0.4391,1.06219 0.19555,2.28428 -0.6172,3.09698l-3.16853,3.17254h2.00667c6.64951,0 12.04,5.39049 12.04,12.04v10.03333z" fill="#70473a"></path><path d="M59.18291,47.31748c2.76519,2.47823 7.47082,3.612 11.19519,4.13173c3.21399,0.45497 5.59956,3.21144 5.58857,6.45745v0c0,-2.2165 1.79683,-4.01333 4.01333,-4.01333v0c2.2165,0 4.01333,1.79683 4.01333,4.01333v6.02c0,3.32475 -2.69525,6.02 -6.02,6.02v0c0,11.08251 -8.98415,20.06667 -20.06667,20.06667v0c-11.08251,0 -20.06667,-8.98415 -20.06667,-20.06667v0c-3.32475,0 -6.02,-2.69525 -6.02,-6.02v-6.02c0,-2.2165 1.79683,-4.01333 4.01333,-4.01333v0c2.2165,0 4.01333,1.79683 4.01333,4.01333v0c-0.00799,-3.24373 2.37685,-5.99678 5.58857,-6.45143c3.72437,-0.51973 8.428,-1.65349 11.19519,-4.13173c0.72826,-0.64359 1.8212,-0.64617 2.55248,-0.00602z" fill="#e7bda0"></path><path d="M144.11307,98.8226l-7.06347,35.3374l-0.88293,2.00667h-48.16l-0.88293,-2.00667l-7.06347,-35.3374c-0.2342,-1.17795 0.07146,-2.39887 0.83304,-3.32753c0.76158,-0.92866 1.89903,-1.46744 3.10003,-1.4684h56.18667c1.201,0.00096 2.33845,0.53974 3.10003,1.4684c0.76158,0.92866 1.06723,2.14958 0.83304,3.32753z" fill="#d4e6e7"></path><path d="M81.98667,134.16h60.2c1.10825,0 2.00667,0.89842 2.00667,2.00667v0c0,4.43301 -3.59366,8.02667 -8.02667,8.02667h-48.16c-4.43301,0 -8.02667,-3.59366 -8.02667,-8.02667v0c0,-1.10825 0.89842,-2.00667 2.00667,-2.00667z" fill="#c0dadc"></path><path d="M142.18667,132.15333h-2.69094l6.58588,-32.93341c0.35342,-1.76817 -0.10436,-3.60165 -1.24743,-4.99618c-1.14307,-1.39453 -2.85104,-2.20325 -4.65418,-2.20374h-56.18667c-3.0401,-0.01882 -5.604,2.26021 -5.94174,5.28155c-3.67884,-2.14383 -7.86034,-3.27385 -12.11826,-3.27488v-3.52571c7.86366,-3.07876 13.28697,-10.36773 13.97643,-18.78441c3.57545,-0.89401 6.08534,-4.10436 6.09023,-7.78988v-16.05333c-0.00786,-6.74968 -4.80752,-12.54295 -11.438,-13.80587c1.38176,-1.39159 1.78954,-3.47835 1.03329,-5.28774c-0.75625,-1.80939 -2.52771,-2.98531 -4.48877,-2.97973h-19.21985c-12.18481,0.01437 -22.05896,9.88853 -22.07333,22.07333v16.05333c0.00489,3.68552 2.51479,6.89587 6.09023,7.78988c0.68946,8.41668 6.11278,15.70565 13.97643,18.78441v3.52571c-6.38739,-0.0032 -12.51409,2.53277 -17.03066,7.04934c-4.51657,4.51657 -7.05254,10.64327 -7.04934,17.03066v20.06667c0,4.43301 3.59366,8.02667 8.02667,8.02667h48.16c0.96834,-0.01907 1.92537,-0.2121 2.82539,-0.56989c1.02615,0.36487 2.1056,0.55743 3.19461,0.56989h38.12667c1.10825,0 2.00667,-0.89842 2.00667,-2.00667c0,-1.10825 -0.89842,-2.00667 -2.00667,-2.00667h-38.12667c-3.32475,0 -6.02,-2.69525 -6.02,-6.02h60.2c0,3.32475 -2.69525,6.02 -6.02,6.02h-2.00667c-1.10825,0 -2.00667,0.89842 -2.00667,2.00667c0,1.10825 0.89842,2.00667 2.00667,2.00667h2.00667c5.53851,-0.00663 10.0267,-4.49483 10.03333,-10.03333c0,-2.2165 -1.79683,-4.01333 -4.01333,-4.01333zM82.44419,96.76777c0.38055,-0.46418 0.94891,-0.73364 1.54915,-0.73444h56.18667c0.603,-0.00073 1.17436,0.26975 1.55601,0.7366c0.38165,0.46685 0.53313,1.08058 0.41253,1.6714l-6.74441,33.712h-46.63493l-6.7424,-33.712c-0.12173,-0.59228 0.03178,-1.20781 0.41739,-1.67356zM51.88667,29.81333h19.21985c0.34045,-0.00433 0.64957,0.19804 0.78177,0.5118c0.1322,0.31376 0.06112,0.67633 -0.17977,0.91695l-3.18057,3.17254c-0.57372,0.5739 -0.74532,1.43685 -0.4348,2.18657c0.31052,0.74973 1.04203,1.23863 1.85351,1.23881h2.00667c5.53851,0.00663 10.0267,4.49483 10.03333,10.03333v4.38256c-1.8616,-0.69317 -3.94741,-0.39876 -5.54442,0.7826c-1.34462,-1.9483 -3.44321,-3.245 -5.78723,-3.57588c-3.65161,-0.25018 -7.16197,-1.50969 -10.13969,-3.63809c-1.48789,-1.33604 -3.74349,-1.33604 -5.23138,0c-2.97649,2.12642 -6.48435,3.38577 -10.13367,3.63809c-2.34401,0.33088 -4.44261,1.62758 -5.78723,3.57588c-1.59511,-1.17854 -3.67712,-1.47285 -5.53639,-0.7826v-4.38256c0.01106,-9.96968 8.09032,-18.04894 18.06,-18.06zM39.84667,69.94666c0,-1.10825 -0.89842,-2.00667 -2.00667,-2.00667c-2.2165,0 -4.01333,-1.79683 -4.01333,-4.01333v-6.02c0,-1.10825 0.89842,-2.00667 2.00667,-2.00667c1.10825,0 2.00667,0.89842 2.00667,2.00667v0c0,1.10825 0.89842,2.00667 2.00667,2.00667c1.10825,0 2.00667,-0.89842 2.00667,-2.00667v0c0.00111,-2.23927 1.64332,-4.13939 3.85882,-4.46483c4.41635,-0.33068 8.64672,-1.91437 12.19451,-4.56517c3.54779,2.65079 7.77816,4.23449 12.19451,4.56517c2.2155,0.32544 3.85771,2.22556 3.85882,4.46483c0,1.10825 0.89842,2.00667 2.00667,2.00667c1.10825,0 2.00667,-0.89842 2.00667,-2.00667c0,-1.10825 0.89842,-2.00667 2.00667,-2.00667c1.10825,0 2.00667,0.89842 2.00667,2.00667v6.02c0,2.2165 -1.79683,4.01333 -4.01333,4.01333c-1.10825,0 -2.00667,0.89842 -2.00667,2.00667c0,9.97426 -8.08574,18.06 -18.06,18.06c-9.97426,0 -18.06,-8.08574 -18.06,-18.06zM57.90667,92.02c1.34643,-0.00229 2.68982,-0.1279 4.01333,-0.37525v4.38858c0,2.2165 -1.79683,4.01333 -4.01333,4.01333c-2.2165,0 -4.01333,-1.79683 -4.01333,-4.01333v-4.38858c1.32352,0.24735 2.6669,0.37295 4.01333,0.37525zM77.97333,136.16666c0.00738,2.17818 0.73081,4.29349 2.05884,6.02h-46.20551c-2.2165,0 -4.01333,-1.79683 -4.01333,-4.01333v-20.06667c-0.00373,-5.32315 2.10923,-10.42936 5.87327,-14.1934c3.76404,-3.76404 8.87024,-5.877 14.1934,-5.87327h0.28495c0.90104,3.54017 4.08869,6.01812 7.74172,6.01812c3.65303,0 6.84068,-2.47796 7.74172,-6.01812h0.28495c4.6994,-0.00221 9.24985,1.64863 12.85471,4.66349l5.88957,29.44984h-2.69094c-2.2165,0 -4.01333,1.79683 -4.01333,4.01333z" fill="#373737"></path><path d="M67.53867,77.17066c0.66495,-0.8866 0.48527,-2.14438 -0.40133,-2.80933c-0.8866,-0.66495 -2.14438,-0.48527 -2.80933,0.40133c-1.51587,2.02116 -3.89488,3.21067 -6.42133,3.21067c-2.52645,0 -4.90546,-1.18951 -6.42133,-3.21067c-0.66495,-0.8866 -1.92273,-1.06628 -2.80933,-0.40133c-0.8866,0.66495 -1.06628,1.92273 -0.40133,2.80933c2.27381,3.03174 5.84232,4.816 9.632,4.816c3.78968,0 7.35819,-1.78426 9.632,-4.816z" fill="#373737"></path><path d="M100.63462,121.53204c0.78737,0.76047 2.03894,0.7496 2.81298,-0.02444c0.77404,-0.77404 0.78491,-2.02561 0.02444,-2.81298l-4.60129,-4.60129l4.60129,-4.60129c0.76047,-0.78737 0.7496,-2.03894 -0.02444,-2.81298c-0.77404,-0.77404 -2.02561,-0.78491 -2.81298,-0.02444l-6.02,6.02c-0.78337,0.7836 -0.78337,2.05382 0,2.83743z" fill="#373737"></path><path d="M120.70129,121.53204c0.7836,0.78337 2.05382,0.78337 2.83743,0l6.02,-6.02c0.78337,-0.7836 0.78337,-2.05382 0,-2.83743l-6.02,-6.02c-0.78737,-0.76047 -2.03894,-0.7496 -2.81298,0.02444c-0.77404,0.77404 -0.78491,2.02561 -0.02444,2.81298l4.60129,4.60129l-4.60129,4.60129c-0.78337,0.7836 -0.78337,2.05382 0,2.83743z" fill="#373737"></path><path d="M109.59439,124.06646c0.15887,0.03947 0.32191,0.05968 0.48561,0.0602c0.92025,-0.00117 1.72176,-0.62815 1.94446,-1.52105l4.01333,-16.05333c0.23933,-1.06356 -0.41424,-2.12364 -1.47197,-2.38753c-1.05773,-0.26389 -2.13266,0.36496 -2.42096,1.4163l-4.01333,16.05333c-0.12858,0.5165 -0.04669,1.06293 0.22766,1.51905c0.27435,0.45612 0.71867,0.78455 1.2352,0.91303z" fill="#373737"></path></g></g></svg>
