<svg xmlns="http://www.w3.org/2000/svg" x="0px" y="0px"
width="60" height="60"
viewBox="0 0 172 172"
style=" fill:#000000;"><g transform="translate(25.8,25.8) scale(0.7,0.7)"><g fill="none" fill-rule="nonzero" stroke="none" stroke-width="1" stroke-linecap="butt" stroke-linejoin="miter" stroke-miterlimit="10" stroke-dasharray="" stroke-dashoffset="0" font-family="none" font-weight="none" font-size="none" text-anchor="none" style="mix-blend-mode: normal"><path d="M0,172v-172h172v172z" fill="none" stroke="none"></path><g stroke="none"><path d="M78.31733,108.30267c-5.7759,-5.14777 -13.24705,-7.98518 -20.984,-7.96933h-22.93333c-8.36456,-0.00457 -16.38784,3.31622 -22.30248,9.23086c-5.91464,5.91464 -9.23542,13.93792 -9.23086,22.30248v28.66667c0,4.74965 3.85035,8.6 8.6,8.6h68.8c1.3956,-0.00649 2.77021,-0.34033 4.01333,-0.97467l4.58667,-4.75867v-45.86667z" fill="#db755d"></path><path d="M54.46667,90.41467v9.91867c0,4.74965 -3.85035,8.6 -8.6,8.6c-4.74965,0 -8.6,-3.85035 -8.6,-8.6v-9.91867z" fill="#d7aa91"></path><path d="M8.6,45.86667v-14.33333c0,-15.83216 12.8345,-28.66667 28.66667,-28.66667h27.4598c1.64196,0.00225 3.1211,0.99279 3.74839,2.5102c0.62729,1.51742 0.27936,3.26326 -0.88172,4.42426l-4.52647,4.5322h2.86667c9.4993,0 17.2,7.7007 17.2,17.2v14.33333z" fill="#70473a"></path><path d="M47.68987,30.73927c3.95027,3.54033 10.6726,5.16 15.99313,5.90247c4.59142,0.64995 7.99938,4.58777 7.98367,9.22493v0c0,-3.16643 2.5669,-5.73333 5.73333,-5.73333v0c3.16643,0 5.73333,2.5669 5.73333,5.73333v8.6c0,4.74965 -3.85035,8.6 -8.6,8.6v0c0,15.83216 -12.8345,28.66667 -28.66667,28.66667v0c-15.83216,0 -28.66667,-12.8345 -28.66667,-28.66667v0c-4.74965,0 -8.6,-3.85035 -8.6,-8.6v-8.6c0,-3.16643 2.5669,-5.73333 5.73333,-5.73333v0c3.16643,0 5.73333,2.5669 5.73333,5.73333v0c-0.01141,-4.6339 3.3955,-8.56683 7.98367,-9.21633c5.32053,-0.74247 12.04,-2.36213 15.99313,-5.90247c1.04036,-0.91941 2.60171,-0.9231 3.6464,-0.0086z" fill="#e7bda0"></path><path d="M169.01867,104.318l-10.09067,50.482l-1.26133,2.86667h-68.8l-1.26133,-2.86667l-10.09067,-50.482c-0.33457,-1.68278 0.10208,-3.42696 1.19005,-4.75361c1.08797,-1.32666 2.7129,-2.09634 4.42862,-2.09772h80.26667c1.71572,0.00138 3.34065,0.77106 4.42862,2.09772c1.08797,1.32666 1.52462,3.07083 1.19005,4.75361z" fill="#d4e6e7"></path><path d="M80.26667,154.8h86c1.58322,0 2.86667,1.28345 2.86667,2.86667v0c0,6.33287 -5.1338,11.46667 -11.46667,11.46667h-68.8c-6.33287,0 -11.46667,-5.1338 -11.46667,-11.46667v0c0,-1.58322 1.28345,-2.86667 2.86667,-2.86667z" fill="#c0dadc"></path><path d="M166.26667,151.93333h-3.8442l9.4084,-47.04773c0.50488,-2.52595 -0.14909,-5.14521 -1.78204,-7.1374c-1.63295,-1.99219 -4.07292,-3.1475 -6.64883,-3.1482h-80.26667c-4.343,-0.02688 -8.00572,3.22887 -8.4882,7.54507c-5.25548,-3.06261 -11.22906,-4.67693 -17.3118,-4.6784v-5.03673c11.2338,-4.39823 18.98139,-14.81104 19.96633,-26.83487c5.10778,-1.27716 8.69334,-5.86337 8.70033,-11.1284v-22.93333c-0.01123,-9.6424 -6.86788,-17.9185 -16.34,-19.72267c1.97395,-1.98799 2.55649,-4.96907 1.47613,-7.55391c-1.08036,-2.58484 -3.61101,-4.26473 -6.41253,-4.25676h-27.45693c-17.40687,0.02054 -31.5128,14.12647 -31.53333,31.53333v22.93333c0.00699,5.26503 3.59255,9.85124 8.70033,11.1284c0.98495,12.02383 8.73254,22.43664 19.96633,26.83487v5.03673c-9.12485,-0.00457 -17.87727,3.61824 -24.32952,10.07048c-6.45224,6.45224 -10.07505,15.20467 -10.07048,24.32952v28.66667c0,6.33287 5.1338,11.46667 11.46667,11.46667h68.8c1.38335,-0.02724 2.75052,-0.30301 4.03627,-0.81413c1.46593,0.52124 3.008,0.79633 4.56373,0.81413h54.46667c1.58322,0 2.86667,-1.28345 2.86667,-2.86667c0,-1.58322 -1.28345,-2.86667 -2.86667,-2.86667h-54.46667c-4.74965,0 -8.6,-3.85035 -8.6,-8.6h86c0,4.74965 -3.85035,8.6 -8.6,8.6h-2.86667c-1.58322,0 -2.86667,1.28345 -2.86667,2.86667c0,1.58322 1.28345,2.86667 2.86667,2.86667h2.86667c7.91215,-0.00948 14.32386,-6.42118 14.33333,-14.33333c0,-3.16643 -2.5669,-5.73333 -5.73333,-5.73333zM80.92027,101.38253c0.54364,-0.66312 1.35559,-1.04806 2.21307,-1.0492h80.26667c0.86143,-0.00104 1.67766,0.38536 2.22287,1.05229c0.54522,0.66693 0.76161,1.54369 0.58933,2.38771l-9.63487,48.16h-66.62133l-9.632,-48.16c-0.1739,-0.84612 0.04541,-1.72544 0.59627,-2.3908zM37.26667,5.73333h27.45693c0.48635,-0.00619 0.92796,0.28292 1.11682,0.73114c0.18886,0.44823 0.08731,0.96619 -0.25682,1.30992l-4.54367,4.5322c-0.8196,0.81985 -1.06474,2.05264 -0.62114,3.12368c0.4436,1.07104 1.48861,1.76948 2.64788,1.76972h2.86667c7.91215,0.00948 14.32386,6.42118 14.33333,14.33333v6.2608c-2.65944,-0.99024 -5.63915,-0.56965 -7.9206,1.118c-1.92089,-2.78329 -4.91887,-4.63572 -8.26747,-5.1084c-5.21659,-0.3574 -10.23139,-2.15669 -14.48527,-5.19727c-2.12555,-1.90863 -5.34785,-1.90863 -7.4734,0c-4.25213,3.03774 -9.26336,4.83682 -14.47667,5.19727c-3.34859,0.47268 -6.34658,2.32511 -8.26747,5.1084c-2.27872,-1.68363 -5.25303,-2.10407 -7.90913,-1.118v-6.2608c0.0158,-14.2424 11.5576,-25.7842 25.8,-25.8zM20.06667,63.06667c0,-1.58322 -1.28345,-2.86667 -2.86667,-2.86667c-3.16643,0 -5.73333,-2.5669 -5.73333,-5.73333v-8.6c0,-1.58322 1.28345,-2.86667 2.86667,-2.86667c1.58322,0 2.86667,1.28345 2.86667,2.86667v0c0,1.58322 1.28345,2.86667 2.86667,2.86667c1.58322,0 2.86667,-1.28345 2.86667,-2.86667v0c0.00158,-3.19896 2.34761,-5.91342 5.5126,-6.37833c6.30908,-0.4724 12.35246,-2.73482 17.42073,-6.52167c5.06827,3.78685 11.11166,6.04926 17.42073,6.52167c3.16499,0.46491 5.51102,3.17938 5.5126,6.37833c0,1.58322 1.28345,2.86667 2.86667,2.86667c1.58322,0 2.86667,-1.28345 2.86667,-2.86667c0,-1.58322 1.28345,-2.86667 2.86667,-2.86667c1.58322,0 2.86667,1.28345 2.86667,2.86667v8.6c0,3.16643 -2.5669,5.73333 -5.73333,5.73333c-1.58322,0 -2.86667,1.28345 -2.86667,2.86667c0,14.24895 -11.55105,25.8 -25.8,25.8c-14.24895,0 -25.8,-11.55105 -25.8,-25.8zM45.86667,94.6c1.92347,-0.00328 3.8426,-0.18272 5.73333,-0.53607v6.2694c0,3.16643 -2.5669,5.73333 -5.73333,5.73333c-3.16643,0 -5.73333,-2.5669 -5.73333,-5.73333v-6.2694c1.89074,0.35335 3.80986,0.53279 5.73333,0.53607zM74.53333,157.66667c0.01054,3.11168 1.04402,6.13355 2.9412,8.6h-66.00787c-3.16643,0 -5.73333,-2.5669 -5.73333,-5.73333v-28.66667c-0.00533,-7.60451 3.01319,-14.89908 8.39039,-20.27628c5.3772,-5.3772 12.67177,-8.39572 20.27628,-8.39039h0.40707c1.2872,5.05738 5.84098,8.59732 11.0596,8.59732c5.21862,0 9.7724,-3.53994 11.0596,-8.59732h0.40707c6.71343,-0.00315 13.21408,2.35518 18.36387,6.66213l8.41367,42.0712h-3.8442c-3.16643,0 -5.73333,2.5669 -5.73333,5.73333z" fill="#373737"></path><path d="M59.62667,73.38667c0.94993,-1.26657 0.69324,-3.0634 -0.57333,-4.01333c-1.26657,-0.94993 -3.0634,-0.69324 -4.01333,0.57333c-2.16553,2.88737 -5.56412,4.58667 -9.17333,4.58667c-3.60922,0 -7.0078,-1.69929 -9.17333,-4.58667c-0.94993,-1.26657 -2.74676,-1.52326 -4.01333,-0.57333c-1.26657,0.94993 -1.52326,2.74676 -0.57333,4.01333c3.2483,4.33106 8.34617,6.88 13.76,6.88c5.41383,0 10.5117,-2.54894 13.76,-6.88z" fill="#373737"></path><path d="M106.9066,136.76007c1.12482,1.08639 2.91278,1.07085 4.01855,-0.03492c1.10577,-1.10577 1.12131,-2.89373 0.03492,-4.01855l-6.57327,-6.57327l6.57327,-6.57327c1.08639,-1.12482 1.07085,-2.91278 -0.03492,-4.01855c-1.10577,-1.10577 -2.89373,-1.12131 -4.01855,-0.03492l-8.6,8.6c-1.11909,1.11943 -1.11909,2.93403 0,4.05347z" fill="#373737"></path><path d="M135.57327,136.76007c1.11943,1.11909 2.93403,1.11909 4.05347,0l8.6,-8.6c1.11909,-1.11943 1.11909,-2.93403 0,-4.05347l-8.6,-8.6c-1.12482,-1.08639 -2.91278,-1.07085 -4.01855,0.03492c-1.10577,1.10577 -1.12131,2.89373 -0.03492,4.01855l6.57327,6.57327l-6.57327,6.57327c-1.11909,1.11943 -1.11909,2.93403 0,4.05347z" fill="#373737"></path><path d="M119.70627,140.38067c0.22696,0.05639 0.45988,0.08526 0.69373,0.086c1.31465,-0.00168 2.45966,-0.89736 2.7778,-2.17293l5.73333,-22.93333c0.3419,-1.51936 -0.59177,-3.03377 -2.10281,-3.41075c-1.51104,-0.37698 -3.04666,0.52138 -3.45852,2.02328l-5.73333,22.93333c-0.18369,0.73786 -0.06669,1.51848 0.32523,2.17007c0.39193,0.6516 1.02667,1.12079 1.76457,1.30433z" fill="#373737"></path></g></g></g></svg>
