<svg xmlns="http://www.w3.org/2000/svg" x="0px" y="0px"
width="58" height="58"
viewBox="0 0 172 172"
style=" fill:#000000;"><g transform="translate(25.8,25.8) scale(0.7,0.7)"><g fill="none" fill-rule="nonzero" stroke="none" stroke-width="1" stroke-linecap="butt" stroke-linejoin="miter" stroke-miterlimit="10" stroke-dasharray="" stroke-dashoffset="0" font-family="none" font-weight="none" font-size="none" text-anchor="none" style="mix-blend-mode: normal"><path d="M0,172v-172h172v172z" fill="none" stroke="none"></path><g stroke="none"><path d="M20.83111,57.92137v44.30176c0,11.89079 9.64891,21.52977 21.55109,21.52977v0v-65.83153z" fill="#133b63"></path><path d="M27.81402,102.22313v-44.30176h-6.98291v44.30176c0,11.89079 9.64891,21.52977 21.55109,21.52977v0v-1.1621c-8.47357,-2.89864 -14.56818,-10.91943 -14.56818,-20.36767z" fill="#1a5075"></path><path d="M100.70085,170.15945h-94.08547v-44.70052c0,-10.91355 6.90021,-20.63669 17.20956,-24.24979l3.98577,-1.39695c8.30598,-2.91114 17.04491,-4.39776 25.84741,-4.39776v0c8.8025,0 17.54143,1.48699 25.84741,4.39776l3.98577,1.39695c10.30934,3.6131 17.20956,13.33625 17.20956,24.24979z" fill="#ffcc80"></path><path d="M83.4913,101.20914l-3.98577,-1.39695c-8.30598,-2.91114 -17.04491,-4.39776 -25.84741,-4.39776v0c-0.91991,0 -1.83834,0.02021 -2.75641,0.05256c7.86716,0.27748 15.65274,1.73874 23.091,4.34557l3.98577,1.39695c10.30934,3.61274 17.20956,13.33588 17.20956,24.24943v44.70052h5.51282v-44.70052c0,-10.91355 -6.90021,-20.63669 -17.20956,-24.24979z" fill="#ffb966"></path><path d="M12.49573,157.67732v-32.21839c0,-10.91355 6.90021,-20.63669 17.20956,-24.24979l3.98577,-1.39695c7.3802,-2.58662 15.10256,-4.04568 22.90724,-4.33969c-0.97908,-0.03675 -1.95926,-0.05844 -2.94017,-0.05844v0c-8.8025,0 -17.54143,1.48699 -25.84741,4.39776l-3.98577,1.39695c-10.30934,3.61347 -17.20956,13.33662 -17.20956,24.25016v44.70052h18.37607c-6.90132,0 -12.49573,-5.58816 -12.49573,-12.48213z" fill="#ffe0b2"></path><path d="M100.70085,170.15945h-94.08547v-19.78735v0c29.48587,11.80295 62.33971,12.083 92.02331,0.78503l2.06216,-0.78503z" fill="#ffb966"></path><path d="M39.29538,74.88138v21.80063l-7.35043,18.81746l0.95703,-0.00772c9.95799,-0.07902 18.61349,6.81348 20.75614,16.52817v0v0c2.31428,-9.89551 11.14913,-16.89349 21.32212,-16.88797l0.39068,0.00037l-7.35043,-18.38379v-21.86715z" fill="#edb298"></path><path d="M86.48513,57.92137v44.30176c0,11.89079 -9.64891,21.52977 -21.55109,21.52977v0v-65.83153z" fill="#133b63"></path><path d="M79.50222,102.22313v-44.30176h6.98291v44.30176c0,11.89079 -9.64891,21.52977 -21.55109,21.52977v0v-1.1621c8.47357,-2.89864 14.56818,-10.91943 14.56818,-20.36767z" fill="#1a5075"></path><path d="M6.61538,143.02976h16.7858c-0.03491,3.12356 0.38075,6.25668 1.25619,9.30086c0.80267,2.78985 1.27236,5.66424 1.27236,8.56692v9.26227h-19.31435z" fill="#edb298"></path><path d="M100.70085,143.02976h-16.7858c0.03491,3.12356 -0.38075,6.25668 -1.25619,9.30086c-0.80267,2.78985 -1.27236,5.66424 -1.27236,8.56692v9.26227h19.31435z" fill="#edb298"></path><path d="M92.75725,54.93636c0,5.59037 -4.60651,11.13443 -10.28913,11.13443c-5.68262,0 -10.28913,-4.53191 -10.28913,-10.12227c0,-5.59037 4.60651,-11.13443 10.28913,-11.13443c5.68262,0 10.28913,4.53191 10.28913,10.12227z" fill="#edb298"></path><path d="M87.24443,54.93636c0,-4.60615 -3.12834,-8.49085 -7.40813,-9.7169c0.84015,-0.26168 1.72184,-0.40538 2.63145,-0.40538c5.68262,0 10.28913,4.53191 10.28913,10.12227c0,5.59037 -4.60651,11.13443 -10.28913,11.13443c-1.00076,0 -1.96661,-0.14333 -2.88137,-0.40538c4.40805,-1.37232 7.65804,-6.0336 7.65804,-10.72905z" fill="#fcc7b6"></path><path d="M67.61401,88.77773v0c-8.45005,5.6319 -19.46209,5.6319 -27.91178,0v0c-9.19575,-6.12915 -14.71813,-16.4418 -14.71813,-27.48472v-35.25081h57.3484v35.25081c0,11.04291 -5.52274,21.35593 -14.7185,27.48472z" fill="#edb298"></path><path d="M53.65738,74.40103c-1.44656,0 -2.89166,-0.45536 -4.09456,-1.36534c-0.48586,-0.36715 -0.58179,-1.05883 -0.21426,-1.54432c0.36715,-0.48586 1.05846,-0.58252 1.54432,-0.21426c1.61489,1.22091 3.87662,1.23046 5.50069,0.02242l0.03271,-0.02426c0.48697,-0.36679 1.17791,-0.26792 1.54359,0.21941c0.36568,0.4866 0.26756,1.17791 -0.21941,1.54359l-0.03675,0.02756c-1.19738,0.8905 -2.62778,1.33521 -4.05633,1.33521z" fill="#dda18a"></path><path d="M53.65812,80.38648v0v0c-1.08676,-1.07426 -2.71709,-1.40503 -4.14417,-0.84089l-3.0225,1.19518l1.30911,1.51419c1.23708,1.54028 3.19927,2.92951 5.85756,2.92951c2.65828,0 4.62011,-1.38923 5.85719,-2.92951l1.30948,-1.51456l-3.0225,-1.19518c-1.42709,-0.56378 -3.05741,-0.23301 -4.14417,0.84126z" fill="#bf5377"></path><path d="M61.00303,80.69703c-0.01433,-0.0577 -0.0555,-0.10511 -0.11062,-0.12716l-3.0225,-1.19518c-1.44142,-0.57003 -3.07468,-0.26976 -4.21179,0.75856c-1.13711,-1.02869 -2.77038,-1.32896 -4.21179,-0.75856l-3.0225,1.19518c-0.05513,0.02205 -0.09666,0.06909 -0.11062,0.12716c-0.01433,0.0577 0.00037,0.11871 0.03932,0.16391l1.30507,1.50904c0.89969,1.11947 2.87549,2.99787 6.00089,2.99787c3.12577,0 5.1012,-1.8784 5.99648,-2.99309l1.30948,-1.51419c0.03822,-0.04447 0.05292,-0.10548 0.03859,-0.16355zM49.58121,79.71649c1.36203,-0.53805 2.91114,-0.22382 3.94755,0.80083c0.07167,0.07093 0.1867,0.07093 0.25837,0c1.03641,-1.02502 2.58588,-1.33851 3.94755,-0.80083l2.61896,1.03568c-4.22539,1.94603 -9.16598,1.94639 -13.39138,0zM59.37234,82.13992c-0.85816,1.06838 -2.74171,2.86079 -5.71422,2.86079c-2.97215,0 -4.85569,-1.7924 -5.71863,-2.86593l-0.76849,-0.88867c2.05996,0.88867 4.2717,1.34145 6.48675,1.34145c2.21468,0 4.42643,-0.45242 6.48602,-1.34072z" fill="#aa446d"></path><g><rect x="158.879" y="144.514" transform="scale(0.36752,0.36752)" width="41.458" height="31.96" fill="#e5e5e5"></rect><rect x="92.879" y="144.514" transform="scale(0.36752,0.36752)" width="41.458" height="31.96" fill="#e5e5e5"></rect><circle cx="179.608" cy="160.494" transform="scale(0.36752,0.36752)" r="6" fill="#133b63"></circle><circle cx="113.608" cy="160.494" transform="scale(0.36752,0.36752)" r="6" fill="#133b63"></circle></g><g><path d="M56.24915,23.92748v0l-5.46615,5.13501c-16.36903,15.37856 -23.38502,38.25199 -18.44994,60.15112v0c-35.61944,-27.14292 -25.95032,-87.376 21.9164,-87.376v0c19.49995,0 35.30263,15.63767 35.28315,34.91526l0.559,11.26526v0c-14.69938,-0.32232 -27.80593,-9.32696 -33.36543,-22.92378z" fill="#133b63"></path><path d="M61.24744,27.21569v0c-1.53403,1.01803 -1.94162,3.09159 -0.90888,4.61533c6.61832,9.76284 17.64397,15.92176 29.75306,16.18748v0l-0.04962,-1.00297c-10.23951,-2.44291 -19.03871,-9.17444 -24.03112,-18.57637c-0.92101,-1.73433 -3.12687,-2.30987 -4.76344,-1.22348z" fill="#1a5075"></path><path d="M31.0041,80.51915c-23.52872,-28.51268 -13.0584,-75.38562 26.69418,-78.51543c-1.13491,-0.10879 -2.28488,-0.16612 -3.44882,-0.16612v0c-47.86672,0 -57.53584,60.23308 -21.9164,87.376v0c-0.65051,-2.88762 -1.08786,-5.79214 -1.32896,-8.69445z" fill="#1a5075"></path></g><g><path d="M159.38887,78.74182c0,-1.78358 -0.18266,-3.5249 -0.52886,-5.20594l6.52461,-3.76305l-8.08547,-13.98933l-6.53306,3.76783c-2.59029,-2.30546 -5.64991,-4.09235 -9.01861,-5.20557v-7.53088h-16.17094v7.53088c-3.36833,1.11322 -6.42832,2.90048 -9.01861,5.20557l-6.53306,-3.76783l-8.08547,13.98933l6.52461,3.76305c-0.34621,1.68141 -0.52886,3.42236 -0.52886,5.20594c0,1.78358 0.18266,3.52453 0.52886,5.20594l-6.52461,3.76305l8.08547,13.98933l6.53306,-3.76783c2.59029,2.30546 5.64991,4.09235 9.01861,5.20557v7.53088h16.17094v-7.53088c3.36833,-1.11322 6.42832,-2.90048 9.01861,-5.20557l6.53306,3.76783l8.08547,-13.98933l-6.52461,-3.76305c0.34621,-1.68104 0.52886,-3.42236 0.52886,-5.20594z" fill="#b39ddb"></path><path d="M124.4725,84.64973c-0.32856,0 -0.6608,-0.08821 -0.96107,-0.2727l-6.61538,-4.06993c-1.14667,-0.70564 -1.14667,-2.42454 0,-3.13055l6.61538,-4.06993c0.86478,-0.5307 1.99638,-0.26241 2.52818,0.60237c0.5318,0.86441 0.26204,1.99638 -0.60237,2.52818l-4.0714,2.50466l4.0714,2.50466c1.5175,0.93387 0.81369,3.40325 -0.96474,3.40325z" fill="#133b63"></path><path d="M142.85188,84.64973c-1.77586,0 -2.48665,-2.4668 -0.96474,-3.40325l4.0714,-2.50466l-4.0714,-2.50466c-0.86441,-0.5318 -1.1338,-1.66377 -0.60237,-2.52818c0.53217,-0.86478 1.66377,-1.13307 2.52818,-0.60237l6.61538,4.06993c1.14667,0.70564 1.14667,2.42454 0,3.13055l-6.61538,4.06993c-0.2999,0.1845 -0.6325,0.2727 -0.96107,0.2727z" fill="#133b63"></path><path d="M130.55462,87.2345c-1.31573,0 -2.22461,-1.41422 -1.66377,-2.61528l6.21295,-13.30942c0.42926,-0.91917 1.52227,-1.3172 2.44255,-0.88756c0.91954,0.42926 1.3172,1.52264 0.88793,2.44255l-6.21295,13.30942c-0.31203,0.66779 -0.97503,1.0603 -1.66671,1.0603z" fill="#133b63"></path><path d="M141.74785,112.50674h-16.17094c-1.01473,0 -1.83761,-0.82251 -1.83761,-1.83761v-6.23684c-2.67482,-1.02906 -5.14934,-2.45762 -7.38277,-4.26215l-5.41322,3.12173c-0.87911,0.50681 -2.00189,0.20544 -2.50907,-0.6722l-8.08547,-13.98933c-0.46969,-1.02318 -0.24514,-1.86003 0.67293,-2.51127l5.4055,-3.11732c-0.43735,-2.81374 -0.43735,-5.70577 0,-8.51951l-5.4055,-3.11732c-0.91807,-0.65125 -1.14262,-1.48809 -0.67293,-2.51127l8.08547,-13.98933c0.50718,-0.87764 1.63032,-1.17938 2.50907,-0.6722l5.41322,3.12173c2.23343,-1.80453 4.70795,-3.23309 7.38277,-4.26251v-6.23684c0,-1.01509 0.82288,-1.83761 1.83761,-1.83761h16.17094c1.01473,0 1.83761,0.82251 1.83761,1.83761v6.23684c2.67519,1.02943 5.14934,2.45798 7.38277,4.26251l5.41322,-3.12173c0.87838,-0.50755 2.00152,-0.20581 2.50907,0.6722l8.08547,13.98933c0.46969,1.02318 0.24514,1.86003 -0.67293,2.51127l-5.4055,3.11695c0.43772,2.81374 0.43735,5.70614 0,8.51988l5.40514,3.11732c0.42228,0.24367 0.73063,0.645 0.85706,1.11616c0.12606,0.47079 0.06027,0.97283 -0.18376,1.39511l-8.08547,13.98933c-0.50755,0.87801 -1.63032,1.17938 -2.50907,0.6722l-5.41322,-3.12173c-2.23343,1.80453 -4.70795,3.23309 -7.38277,4.26215v6.23684c0,1.01509 -0.82288,1.83761 -1.83761,1.83761zM127.41451,108.83153h12.49573v-5.69327c0,-0.79274 0.50828,-1.49581 1.26097,-1.74462c3.10592,-1.02685 5.92334,-2.65314 8.37361,-4.83364c0.59171,-0.52629 1.45428,-0.6145 2.13971,-0.21904l4.94279,2.8505l6.24639,-10.80733l-4.9314,-2.84425c-0.68616,-0.39582 -1.04156,-1.18673 -0.88168,-1.96256c0.65309,-3.17244 0.65309,-6.49851 0,-9.67059c-0.15987,-0.77584 0.19552,-1.56711 0.88168,-1.96256l4.9314,-2.84388l-6.24639,-10.80733l-4.94279,2.8505c-0.68616,0.39582 -1.54837,0.30725 -2.13971,-0.21904c-2.45026,-2.18087 -5.26732,-3.80679 -8.37361,-4.83401c-0.75232,-0.24881 -1.2606,-0.95225 -1.2606,-1.74462v-5.69327h-12.49573v5.69327c0,0.79238 -0.50828,1.49581 -1.2606,1.74462c-3.10592,1.02685 -5.92334,2.6535 -8.37397,4.83401c-0.59097,0.52666 -1.45355,0.61486 -2.13971,0.21904l-4.94316,-2.85086l-6.24639,10.80733l4.9314,2.84388c0.68616,0.39545 1.04156,1.18673 0.88168,1.9622c-0.65309,3.17244 -0.65345,6.49851 0,9.67059c0.15987,0.77584 -0.19552,1.56711 -0.88168,1.96256l-4.9314,2.84425l6.24639,10.80733l4.94279,-2.8505c0.68616,-0.39545 1.54837,-0.30725 2.13971,0.21904c2.45063,2.18087 5.26768,3.80715 8.37361,4.83364c0.75268,0.24881 1.26097,0.95188 1.26097,1.74462z" fill="#133b63"></path></g><g><path d="M135.92226,170.16239h-54.39316c-2.02982,0 -3.67521,-1.64539 -3.67521,-3.67521v-39.92274h61.74359v39.92274c0,2.02982 -1.64539,3.67521 -3.67521,3.67521z" fill="#efefef"></path><path d="M83.73423,166.48718v-39.92274h-5.88034v39.92274c0,2.02982 1.64539,3.67521 3.67521,3.67521h5.88034c-2.02982,0 -3.67521,-1.64539 -3.67521,-3.67521z" fill="#ffffff"></path><circle cx="295.835" cy="391.686" transform="scale(0.36752,0.36752)" r="10" fill="#133b63"></circle><g><path d="M135.92226,170.16239h-54.39316c-2.02982,0 -3.67521,-1.64539 -3.67521,-3.67521v-4.77557h61.74359v4.77557c0,2.02982 -1.64539,3.67521 -3.67521,3.67521z" fill="#d6d6d6"></path><path d="M83.36671,166.48718v-4.77557h-5.51282v4.77557c0,2.02982 1.64539,3.67521 3.67521,3.67521h5.51282c-2.02982,0 -3.67521,-1.64539 -3.67521,-3.67521z" fill="#efefef"></path></g></g><path d="M139.59748,124.72683h-37.07335c-0.26131,-9.82238 -5.75832,-18.6778 -14.20139,-23.35194v-35.19568c3.67815,-2.28341 6.27212,-6.56797 6.27212,-11.24285c0,-2.838 -1.01105,-5.4452 -2.69209,-7.4978l-0.53217,-10.73089c-0.00478,-20.17435 -17.06475,-36.70767 -37.12113,-36.70767c-19.30626,0 -36.29384,10.9231 -42.55971,29.48477c-5.43748,16.10626 -2.30399,34.52422 7.30375,48.41653v23.47102c-8.65439,4.78954 -14.21573,13.97316 -14.21573,24.08662v44.70052c0,1.01509 0.82288,1.83761 1.83761,1.83761l129.30688,0.00294c3.03977,0 5.51282,-2.47305 5.51282,-5.51282v-39.92274c0,-1.01509 -0.82288,-1.83761 -1.83761,-1.83761zM90.91964,54.93636c0,3.89242 -2.84425,8.19095 -6.86236,9.11379c0.07203,-0.91256 0.11246,-1.83173 0.11246,-2.75678v-12.01979c1.61783,0.28446 3.26543,0.46455 4.93397,0.54283c1.13564,1.40981 1.81592,3.18751 1.81592,5.11994zM40.72137,87.24884c-3.12209,-2.08091 -5.78993,-4.66568 -7.93038,-7.60585c-0.31607,-4.5455 -0.12091,-9.08917 0.55753,-13.54684c0.22786,0.14517 0.49652,0.23191 0.7865,0.23191h15.2367c0.81185,0 1.47009,-0.65823 1.47009,-1.47009v-5.33053c0.79164,-0.82876 1.87546,-1.29698 3.03977,-1.29698c1.16431,0 2.2485,0.46822 3.03977,1.29662v5.3309c0,0.81185 0.65823,1.47009 1.47009,1.47009h15.2367c0.81185,0 1.47009,-0.65823 1.47009,-1.47009v-5.19014l5.39668,-4.55285v6.17803c0,10.45157 -5.19638,20.15487 -13.89966,25.95583c-7.85944,5.23828 -18.01479,5.23791 -25.87387,0zM63.09607,93.14131v23.31335c-4.03208,2.31979 -7.33573,5.80206 -9.42509,10.0778c-3.56055,-7.25634 -10.82865,-12.26272 -19.05268,-12.82539l6.38899,-16.35617c0.08343,-0.21316 0.12606,-0.43992 0.12606,-0.66852v-4.92368c6.73887,3.53886 14.83243,4.05376 21.96271,1.38262zM51.19058,50.72273c0,0 -0.35833,-9.60591 3.2544,-18.95161c0.22051,5.57236 3.2114,12.23368 12.0264,19.44445c0,0 -4.63885,-7.38093 -6.4195,-16.63218c5.11185,6.71829 12.29726,11.5953 20.44301,13.8618v2.82293l-5.39668,4.55285v-2.70937c0,-0.81185 -0.65823,-1.47009 -1.47009,-1.47009h-15.2367c-0.81185,0 -1.47009,0.65823 -1.47009,1.47009v2.8527c-0.93497,-0.43845 -1.96697,-0.6744 -3.03977,-0.6744v0c-1.07279,0 -2.10479,0.23595 -3.03977,0.6744v-2.8527c0,-0.81185 -0.65823,-1.47009 -1.47009,-1.47009h-11.98561c2.67482,-6.44706 6.44228,-12.46228 11.21014,-17.7296c-0.62626,4.35807 -0.03161,9.8628 2.59433,16.81079zM72.15768,54.58207v8.80581h-12.29653v-8.80581zM47.90126,54.58207v8.80581h-12.29616v-6.89029c0.20544,-0.64169 0.41824,-1.28081 0.64463,-1.91552zM66.77128,91.44079c8.71687,-4.85496 14.9199,-13.84159 16.77882,-23.59156c0.36973,-0.03859 0.73578,-0.09739 1.09705,-0.17421v34.54811c0,10.23915 -7.86422,18.67854 -17.87624,19.60763v-30.38997zM15.17202,30.6601c5.7892,-17.14928 20.03249,-26.98489 39.07744,-26.98489c18.84723,0 32.5069,14.97025 33.44812,33.1688l0.4583,9.23838c-13.7905,-1.07757 -25.13589,-10.18108 -30.20585,-22.85027c-0.47998,-1.17386 -2.0346,-1.51235 -2.95891,-0.6439c-6.83185,6.41803 -13.28332,12.81437 -17.888,21.11337c-6.84839,12.34247 -9.49418,26.84707 -7.49927,40.81692c-14.80303,-13.72619 -20.73629,-35.18466 -14.43183,-53.85842zM22.66872,82.63497c2.54068,2.93944 5.39485,5.63557 8.55038,8.04026c1.34329,1.02318 3.27535,-0.22933 2.90636,-1.86554c-0.19699,-0.8736 -0.36642,-1.7494 -0.52372,-2.62631c1.19591,1.17092 2.48408,2.26209 3.85603,3.26469v5.78736c-5.02843,1.03972 -9.98335,2.64542 -14.78906,4.44444zM24.0925,168.32185h-15.6395v-23.45448h13.13999c0.1154,2.68658 0.55937,5.40918 1.3047,7.99285c0.79274,2.74869 1.19444,5.59221 1.19444,8.45189v7.00974zM76.01628,126.56444v39.92274c0,0.6439 0.11687,1.25986 0.32048,1.83467h-48.56905v-7.00974c0,-3.20442 -0.45058,-6.39083 -1.33851,-9.47066c-1.91221,-6.62972 -1.5061,-13.78977 1.14336,-20.16222l0.05439,-0.13121c0.38921,-0.93755 -0.05513,-2.01291 -0.99231,-2.40175c-0.93681,-0.38957 -2.01255,0.05476 -2.40175,0.99194l-0.05403,0.13047c-1.45024,3.48778 -2.29591,7.18651 -2.53663,10.92347h-13.18924v-15.73322c0,-10.1175 6.4217,-19.16587 15.97946,-22.51546c3.92329,-1.3749 7.83151,-2.74943 11.88785,-3.69543l-6.08689,15.58291c-0.46344,1.18636 0.43882,2.50613 1.71155,2.50613c9.31409,-0.18486 17.86338,5.76053 19.91856,15.07867c0.40538,1.8365 3.14745,1.88796 3.5837,0.02279c1.12572,-4.81416 3.90197,-8.85469 7.64885,-11.60008v2.91444c0,1.01509 0.82288,1.83761 1.83761,1.83761c11.77575,0 21.54226,-8.74113 23.15164,-20.06924c6.41141,4.2129 10.52214,11.34685 10.7636,19.20556h-20.99503c-1.01473,0 -1.83761,0.82251 -1.83761,1.83761zM137.75987,166.48718c0,1.01326 -0.82435,1.83761 -1.83761,1.83761h-54.39316c-1.01326,0 -1.83761,-0.82435 -1.83761,-1.83761v-2.93797h58.06838zM137.75987,159.874h-58.06838v-31.47196h58.06838z" fill="#133b63"></path></g></g></g></svg>
