<svg xmlns="http://www.w3.org/2000/svg" x="0px" y="0px"
width="60" height="60"
viewBox="0 0 172 172"
style=" fill:#000000;"><g transform="translate(25.8,25.8) scale(0.7,0.7)"><g fill="none" fill-rule="nonzero" stroke="none" stroke-width="1" stroke-linecap="butt" stroke-linejoin="miter" stroke-miterlimit="10" stroke-dasharray="" stroke-dashoffset="0" font-family="none" font-weight="none" font-size="none" text-anchor="none" style="mix-blend-mode: normal"><path d="M0,172v-172h172v172z" fill="none" stroke="none"></path><g stroke="none"><path d="M106.06667,114.66667c20.58181,0 37.26667,16.68485 37.26667,37.26667v11.46667c0,3.16643 -2.5669,5.73333 -5.73333,5.73333h-103.2c-3.16643,0 -5.73333,-2.5669 -5.73333,-5.73333v-11.46667c0,-20.58181 16.68485,-37.26667 37.26667,-37.26667z" fill="#4cb799"></path><path d="M129,60.2v-20.06667c0,-20.58181 -16.68485,-37.26667 -37.26667,-37.26667h-11.46667c-20.58181,0 -37.26667,16.68485 -37.26667,37.26667v20.06667z" fill="#685345"></path><path d="M94.6,104.86267v9.804c0,4.74965 -3.85035,8.6 -8.6,8.6c-4.74965,0 -8.6,-3.85035 -8.6,-8.6v-9.804z" fill="#7c614e"></path><path d="M117.53333,48.73333c6.33287,0 11.46667,5.1338 11.46667,11.46667c0,6.33247 -5.1342,17.2 -11.46667,17.2h-63.06667c-6.33247,0 -11.46667,-10.86753 -11.46667,-17.2c0,-6.33287 5.1338,-11.46667 11.46667,-11.46667z" fill="#7c614e"></path><path d="M117.53333,45.86667v28.66667c0,17.41538 -14.11795,31.53333 -31.53333,31.53333c-17.41538,0 -31.53333,-14.11795 -31.53333,-31.53333v-28.66667c0,-11.094 6.42133,-20.06667 14.33333,-20.06667c0.1929,-0.0094 0.38612,0.00993 0.57333,0.05733c3.39492,0.26468 6.52403,1.93839 8.62867,4.61533c1.93327,2.4222 4.84225,3.86094 7.94067,3.92733h0.11467c3.09842,-0.06639 6.0074,-1.50513 7.94067,-3.92733c2.10464,-2.67694 5.23375,-4.35065 8.62867,-4.61533c0.18722,-0.04741 0.38044,-0.06673 0.57333,-0.05733c7.912,0 14.33333,8.97267 14.33333,20.06667z" fill="#9e7a5f"></path><path d="M34.4,172h103.2c4.74965,0 8.6,-3.85035 8.6,-8.6v-11.46667c-0.0237,-22.1552 -17.97813,-40.10963 -40.13333,-40.13333h-8.6v-4.87333c11.8713,-4.22388 20.48932,-14.59212 22.4718,-27.03553c7.34153,-2.1156 11.9282,-13.459 11.9282,-19.69113v-20.06667c-0.0237,-22.1552 -17.97813,-40.10963 -40.13333,-40.13333h-11.46667c-22.1552,0.0237 -40.10963,17.97813 -40.13333,40.13333v20.06667c0,6.22927 4.58667,17.56693 11.9196,19.68827c1.91893,12.47942 10.56356,22.88341 22.4804,27.0556v7.7228c-0.00718,5.76707 4.27812,10.63839 9.99906,11.36643c5.72094,0.72804 11.08973,-2.91471 12.52721,-8.49976h9.00707c18.99008,0.02054 34.37946,15.40992 34.4,34.4v11.46667c0,1.58322 -1.28345,2.86667 -2.86667,2.86667h-103.2c-1.58322,0 -2.86667,-1.28345 -2.86667,-2.86667v-11.46667c0.02054,-18.99008 15.40992,-34.37946 34.4,-34.4c1.58322,0 2.86667,-1.28345 2.86667,-2.86667c0,-1.58322 -1.28345,-2.86667 -2.86667,-2.86667c-22.1552,0.0237 -40.10963,17.97813 -40.13333,40.13333v11.46667c0,4.74965 3.85035,8.6 8.6,8.6zM120.4,73.21753v-21.09007c3.42381,1.21046 5.71828,4.44108 5.73333,8.07253c-0.26117,4.89281 -2.29996,9.52187 -5.73333,13.01753zM80.26667,5.73333h11.46667c18.99008,0.02054 34.37946,15.40992 34.4,34.4v8.67453c-1.68781,-1.3031 -3.64739,-2.20941 -5.73333,-2.65167v-0.28953c0,-12.64487 -7.7142,-22.93333 -17.2,-22.93333c-0.32175,-0.00575 -0.64332,0.01921 -0.96033,0.07453c-4.10275,0.37822 -7.8745,2.41108 -10.44613,5.63013c-1.37252,1.82843 -3.52737,2.90197 -5.81362,2.89633c-2.28625,-0.00564 -4.43577,-1.08981 -5.79925,-2.925c-2.56775,-3.20582 -6.32994,-5.22819 -10.42033,-5.60147c-0.31701,-0.05533 -0.63858,-0.08028 -0.96033,-0.07453c-9.4858,0 -17.2,10.28847 -17.2,22.93333v0.28667c-2.08595,0.44226 -4.04553,1.34856 -5.73333,2.65167v-8.67167c0.02054,-18.99008 15.40992,-34.37946 34.4,-34.4zM45.86667,60.2c0.01505,-3.63145 2.30953,-6.86207 5.73333,-8.07253v21.09007c-3.43338,-3.49567 -5.47216,-8.12473 -5.73333,-13.01753zM57.33333,74.53333v-28.66667c0,-9.2794 5.203,-17.12833 11.46667,-17.2c0.14525,0.03118 0.29299,0.04941 0.44147,0.05447c2.58432,0.23694 4.95488,1.53431 6.54747,3.58333c2.45398,3.12766 6.20715,4.95669 10.18261,4.96228c3.97546,0.00559 7.73376,-1.81287 10.19653,-4.93362c1.59753,-2.06242 3.97859,-3.37024 6.57613,-3.612c0.15312,-0.00624 0.30552,-0.02445 0.4558,-0.05447v0c6.21493,0 11.46667,7.8776 11.46667,17.2v28.66667c0,15.83216 -12.8345,28.66667 -28.66667,28.66667c-15.83216,0 -28.66667,-12.8345 -28.66667,-28.66667zM86,120.4c-3.16643,0 -5.73333,-2.5669 -5.73333,-5.73333v-6.24073c1.89389,0.32663 3.81151,0.49634 5.73333,0.5074c1.92226,-0.01227 3.8401,-0.18584 5.73333,-0.51887v6.2522c0,3.16643 -2.5669,5.73333 -5.73333,5.73333z" fill="#373737"></path><path d="M96.38593,91.0568c1.20366,-0.99614 1.38797,-2.77269 0.41442,-3.9947c-0.97354,-1.22201 -2.74636,-1.43938 -3.98629,-0.48876c-4.06018,2.96108 -9.56795,2.96108 -13.62813,0c-1.23887,-0.98634 -3.04276,-0.78163 -4.0291,0.45723c-0.98634,1.23887 -0.78163,3.04276 0.45723,4.0291c6.11813,4.72419 14.65374,4.72419 20.77187,0z" fill="#373737"></path><path d="M73.6934,135.57327c-1.11943,-1.11909 -2.93403,-1.11909 -4.05347,0l-8.6,8.6c-1.11909,1.11943 -1.11909,2.93403 0,4.05347l8.6,8.6c1.12482,1.08639 2.91278,1.07085 4.01855,-0.03492c1.10577,-1.10577 1.12131,-2.89373 0.03492,-4.01855l-6.57327,-6.57327l6.57327,-6.57327c1.11909,-1.11943 1.11909,-2.93403 0,-4.05347z" fill="#373737"></path><path d="M98.3066,156.82673c1.11943,1.11909 2.93403,1.11909 4.05347,0l8.6,-8.6c1.11909,-1.11943 1.11909,-2.93403 0,-4.05347l-8.6,-8.6c-1.12482,-1.08639 -2.91278,-1.07085 -4.01855,0.03492c-1.10577,1.10577 -1.12131,2.89373 -0.03492,4.01855l6.57327,6.57327l-6.57327,6.57327c-1.11909,1.11943 -1.11909,2.93403 0,4.05347z" fill="#373737"></path><path d="M83.13333,160.53333c1.31465,-0.00168 2.45966,-0.89736 2.7778,-2.17293l5.73333,-22.93333c0.3419,-1.51936 -0.59177,-3.03377 -2.10281,-3.41075c-1.51104,-0.37698 -3.04666,0.52138 -3.45852,2.02328l-5.73333,22.93333c-0.38286,1.53477 0.54978,3.0896 2.08407,3.4744c0.22886,0.05662 0.46371,0.0855 0.69947,0.086z" fill="#373737"></path></g></g></g></svg>
