<svg xmlns="http://www.w3.org/2000/svg" x="0px" y="0px"
width="60" height="60"
viewBox="0 0 172 172"
style=" fill:#000000;"><g transform="translate(25.8,25.8) scale(0.7,0.7)"><g fill="none" fill-rule="nonzero" stroke="none" stroke-width="1" stroke-linecap="butt" stroke-linejoin="miter" stroke-miterlimit="10" stroke-dasharray="" stroke-dashoffset="0" font-family="none" font-weight="none" font-size="none" text-anchor="none" style="mix-blend-mode: normal"><path d="M0,172v-172h172v172z" fill="none" stroke="none"></path><g stroke="none"><path d="M8.6,151.93333h154.8v0v14.33333c0,1.58322 -1.28345,2.86667 -2.86667,2.86667h-149.06667c-1.58322,0 -2.86667,-1.28345 -2.86667,-2.86667v-14.33333z" fill="#b7895b"></path><rect x="17" y="30" transform="scale(2.86667,2.86667)" width="10" height="9" fill="#e2b189"></rect><path d="M96.54933,107.12733l0.91733,41.93933h-88.86667v-14.33333c0.04566,-15.81321 12.85346,-28.62101 28.66667,-28.66667h16.082c2.84692,1.97543 6.25472,2.98068 9.718,2.86667c3.46328,0.11402 6.87108,-0.89124 9.718,-2.86667h16.082c2.59747,-0.00127 5.18271,0.35565 7.68267,1.06067z" fill="#e74c3c"></path><path d="M63.06667,108.93333c0,0 -8.6,2.86667 -11.46667,8.6c0,0 -11.46667,-3.354 -11.46667,-11.46667c2.19343,-2.81955 5.25717,-4.83517 8.71467,-5.73333c0.90061,2.31392 2.46678,4.30903 4.50067,5.73333c2.84692,1.97543 6.25472,2.98068 9.718,2.86667z" fill="#f1f2f5"></path><path d="M86,106.06667c-0.12154,2.99269 -1.59856,5.76738 -4.01333,7.53933c-2.22839,1.74616 -4.75316,3.07653 -7.45333,3.92733c-0.07839,-0.17195 -0.17446,-0.33527 -0.28667,-0.48733c-3.06733,-5.418 -11.18,-8.11267 -11.18,-8.11267c3.46328,0.11402 6.87108,-0.89124 9.718,-2.86667c2.03389,-1.4243 3.60005,-3.41941 4.50067,-5.73333c3.45749,0.89817 6.52124,2.91379 8.71467,5.73333z" fill="#f1f2f5"></path><path d="M100.33333,28.66667v17.51533l-2.86667,2.55133h-68.8l-2.86667,-2.55133v-17.51533c0,-14.24895 11.55105,-25.8 25.8,-25.8h34.60067c1.02481,-0.00152 1.95896,0.58699 2.40003,1.51203c0.44108,0.92503 0.31028,2.02134 -0.33603,2.81664l-3.41133,4.27133l-4.58667,5.73333h8.6c6.33287,0 11.46667,5.1338 11.46667,11.46667z" fill="#806550"></path><path d="M100.33333,46.182v11.15133c0,4.74965 -3.85035,8.6 -8.6,8.6c-0.18213,4.97534 -1.4027,9.85762 -3.58333,14.33333c-3.58333,7.16667 -10.75,14.33333 -25.08333,14.33333c-28.66667,0 -28.66667,-28.66667 -28.66667,-28.66667c-4.74965,0 -8.6,-3.85035 -8.6,-8.6v-11.15133c-0.05648,-2.88386 1.9594,-5.39466 4.78733,-5.96267c1.66155,-0.27797 3.36127,0.18889 4.64772,1.27658c1.28645,1.08769 2.02943,2.68612 2.03161,4.37076c0.023,-4.69569 3.40217,-8.70242 8.02667,-9.51733c5.8412,-0.99378 11.34609,-3.41632 16.02467,-7.052c1.01751,-0.8315 2.47983,-0.8315 3.49733,0c4.67858,3.63568 10.18347,6.05822 16.02467,7.052c4.64501,0.77911 8.04242,4.80746 8.02667,9.51733c0.00218,-1.68464 0.74516,-3.28307 2.03161,-4.37076c1.28645,-1.08769 2.98617,-1.55454 4.64772,-1.27658c2.82793,0.56801 4.84381,3.07881 4.78733,5.96267z" fill="#eec29a"></path><path d="M91.73333,146.2h-20.06667c-1.58322,0 -2.86667,-1.28345 -2.86667,-2.86667v-8.6c0,-1.58322 1.28345,-2.86667 2.86667,-2.86667h22.67533z" fill="#d7dce3"></path><path d="M89.44,146.2l2.60867,-14.33333l8.428,-46.38267c0.25469,-1.35404 1.4316,-2.3388 2.80933,-2.35067h62.98067c0.84876,0.00311 1.65251,0.38218 2.19479,1.03513c0.54228,0.65295 0.76733,1.51263 0.61455,2.34754l-10.836,59.684l-0.57333,2.86667h-68.8z" fill="#cdd1da"></path><rect x="1" y="51" transform="scale(2.86667,2.86667)" width="58" height="4" rx="1" ry="0" fill="#ce9f68"></rect><path d="M166.26667,143.33333h-4.58667l10.21393,-56.2698c0.3164,-1.67606 -0.12989,-3.40598 -1.21762,-4.7198c-1.08774,-1.31382 -2.70398,-2.07511 -4.40964,-2.07706h-62.98067c-2.76392,0.01403 -5.12812,1.98962 -5.633,4.70707l-3.4056,18.75087c-1.77488,-0.33123 -3.5753,-0.50676 -5.38073,-0.5246h-1.43333c-1.95793,-2.18205 -4.41764,-3.85465 -7.16667,-4.87333v-5.22593c4.50638,-2.78412 8.12983,-6.79029 10.449,-11.55267c1.999,-4.10413 3.26045,-8.52793 3.72667,-13.06913c5.13617,-1.25731 8.751,-5.85778 8.75767,-11.1456v-11.15707v0v-17.5096c-0.00948,-7.91215 -6.42118,-14.32386 -14.33333,-14.33333h-2.63447l4.2742,-5.34633c1.32952,-1.65972 1.58949,-3.9348 0.66866,-5.85167c-0.92083,-1.91686 -2.85929,-3.13586 -4.98586,-3.13533h-34.5892c-15.82496,0.01738 -28.64929,12.84171 -28.66667,28.66667v17.50673v0v11.15993c0.00901,5.2968 3.63616,9.90177 8.78347,11.15133c0.59913,5.3836 3.21353,17.91667 14.14987,24.59313v5.24887c-2.74903,1.01868 -5.20873,2.69128 -7.16667,4.87333h-1.43333c-17.40687,0.02054 -31.5128,14.12647 -31.53333,31.53333c0,1.58322 1.28345,2.86667 2.86667,2.86667c1.58322,0 2.86667,-1.28345 2.86667,-2.86667c0.0158,-14.2424 11.5576,-25.7842 25.8,-25.8h0.39847c2.12133,8.02667 12.6334,11.2058 13.1322,11.352c1.33066,0.38872 2.74883,-0.23044 3.36833,-1.4706c2.17143,-3.15772 5.28754,-5.54624 8.901,-6.82267c3.61201,1.27202 6.72479,3.66182 8.88667,6.82267c0.6195,1.24016 2.03767,1.85932 3.36833,1.4706c0.4988,-0.1462 11.01087,-3.33393 13.1322,-11.352h0.4128c1.46185,0.01516 2.91967,0.15614 4.35733,0.4214l-3.57187,19.64527h-17.98547c-3.16643,0 -5.73333,2.5669 -5.73333,5.73333v8.6h-60.2c-3.16643,0 -5.73333,2.5669 -5.73333,5.73333v5.73333c0,3.16643 2.5669,5.73333 5.73333,5.73333v5.73333c0,3.16643 2.5669,5.73333 5.73333,5.73333h149.06667c3.16643,0 5.73333,-2.5669 5.73333,-5.73333v-5.73333c3.16643,0 5.73333,-2.5669 5.73333,-5.73333v-5.73333c0,-3.16643 -2.5669,-5.73333 -5.73333,-5.73333zM51.6,5.73333h34.1678l-6.88,8.6h-10.0878c-1.58322,0 -2.86667,1.28345 -2.86667,2.86667c0,1.58322 1.28345,2.86667 2.86667,2.86667h20.06667c4.74965,0 8.6,3.85035 8.6,8.6v9.11027c-0.47708,-0.1745 -0.96942,-0.30407 -1.4706,-0.387c-2.23908,-0.37046 -4.53383,0.15918 -6.38407,1.47347c-1.90753,-2.84587 -4.90511,-4.77822 -8.28467,-5.3406c-5.35763,-0.92247 -10.40887,-3.13958 -14.7146,-6.4586c-2.07778,-1.68764 -5.0568,-1.67805 -7.12367,0.02293c-4.2892,3.30317 -9.31938,5.51027 -14.6544,6.42993c-3.37348,0.59531 -6.36327,2.52854 -8.2904,5.36067c-1.86146,-1.31876 -4.16664,-1.8531 -6.41847,-1.4878c-0.49706,0.08333 -0.98547,0.21191 -1.45913,0.38413v-9.1074c0.01422,-12.65984 10.2735,-22.91911 22.93333,-22.93333zM37.26667,65.93333c0,-1.58322 -1.28345,-2.86667 -2.86667,-2.86667c-3.16643,0 -5.73333,-2.5669 -5.73333,-5.73333v-11.15133c-0.04935,-1.47277 0.93971,-2.77876 2.37073,-3.1304c0.16378,-0.02965 0.32956,-0.0469 0.49593,-0.0516c0.76193,-0.00539 1.49421,0.2949 2.03299,0.83368c0.53878,0.53878 0.83907,1.27106 0.83368,2.03299c0,1.58322 1.28345,2.86667 2.86667,2.86667c1.58322,0 2.86667,-1.28345 2.86667,-2.86667c0.02231,-3.301 2.39721,-6.11592 5.64733,-6.69367c6.29561,-1.04034 12.21831,-3.68088 17.2,-7.66833c5.0647,3.96389 11.03886,6.60068 17.3806,7.6712c3.2655,0.54664 5.65325,3.37989 5.63873,6.6908c0,1.58322 1.28345,2.86667 2.86667,2.86667c1.58322,0 2.86667,-1.28345 2.86667,-2.86667c0.00305,-0.84319 0.37716,-1.64227 1.02279,-2.18462c0.64563,-0.54235 1.49728,-0.77295 2.32835,-0.63045c1.43623,0.34607 2.43147,1.65388 2.3822,3.1304v11.15133c0,3.16643 -2.5669,5.73333 -5.73333,5.73333c-1.58322,0 -2.86667,1.28345 -2.86667,2.86667c-0.18939,4.53126 -1.30654,8.97546 -3.28233,13.05767c-4.22833,8.44233 -11.80493,12.74233 -22.51767,12.74233c-25.3958,0 -25.8,-24.75367 -25.8,-25.8zM50.45333,114.02453c-2.58,-1.12947 -6.83127,-3.52027 -7.3874,-7.16667c1.21793,-1.30719 2.71251,-2.32577 4.37453,-2.98133c1.71099,2.75086 4.20732,4.92566 7.16667,6.2436c-1.56528,1.09479 -2.96431,2.40982 -4.1538,3.9044zM63.06667,106.06667c-9.01853,0 -11.34053,-6.2178 -11.46667,-6.57613v-3.77253c3.70293,1.19735 7.57516,1.78786 11.46667,1.74867c3.89112,0.04313 7.76352,-0.5445 11.46667,-1.74007v3.7668c-0.1204,0.34687 -2.41373,6.57327 -11.46667,6.57327zM75.68,114.02453c-1.19078,-1.49276 -2.59077,-2.80585 -4.15667,-3.89867c2.95935,-1.31794 5.45568,-3.49274 7.16667,-6.2436c1.66203,0.65556 3.1566,1.67414 4.37453,2.98133c-0.54753,3.64067 -4.80453,6.03433 -7.38453,7.16093zM166.26667,86l-10.42033,57.33333h-62.96633l10.406,-57.33333zM71.66667,134.73333h16.94487l-1.56233,8.6h-15.38253zM160.53333,166.26667h-149.06667v-5.73333h149.06667zM166.26667,154.8h-160.53333v-5.73333h160.53333z" fill="#373737"></path><path d="M118.96667,129c7.1212,-0.0079 12.8921,-5.7788 12.9,-12.9c-0.00228,-3.77578 2.92533,-6.90568 6.69285,-7.15531c3.76752,-0.24963 7.08249,2.46665 7.5784,6.20972c0.49591,3.74307 -1.99737,7.22887 -5.69992,7.96892c-0.0399,-1.13678 -0.75403,-2.14016 -1.81503,-2.55021c-1.061,-0.41004 -2.2643,-0.14769 -3.05831,0.66681l-2.86667,2.86667c-1.11909,1.11943 -1.11909,2.93403 0,4.05347l2.86667,2.86667c1.11943,1.11909 2.93403,1.11909 4.05347,0c0.56775,-0.57442 0.86296,-1.36408 0.81127,-2.17007c6.88297,-0.76835 11.9233,-6.84636 11.4047,-13.75264c-0.51861,-6.90628 -6.41013,-12.16339 -13.33065,-11.89521c-6.92053,0.26819 -12.38753,5.96548 -12.37011,12.89118c0.00228,3.77578 -2.92533,6.90568 -6.69285,7.15531c-3.76752,0.24963 -7.08249,-2.46665 -7.5784,-6.20972c-0.49591,-3.74307 1.99737,-7.22887 5.69992,-7.96892c0.04513,1.13403 0.75957,2.1329 1.81819,2.54202c1.05862,0.40913 2.25911,0.15032 3.05514,-0.65862l2.86667,-2.86667c1.11909,-1.11943 1.11909,-2.93403 0,-4.05347l-2.86667,-2.86667c-1.11943,-1.11909 -2.93403,-1.11909 -4.05347,0c-0.56775,0.57442 -0.86296,1.36408 -0.81127,2.17007c-6.79938,0.73505 -11.83539,6.66121 -11.46381,13.4901c0.37158,6.82889 6.02088,12.17362 12.85987,12.16657z" fill="#373737"></path></g></g></g></svg>
