<svg xmlns="http://www.w3.org/2000/svg" x="0px" y="0px"
width="50" height="50"
viewBox="0 0 172 172"
style=" fill:#000000;"><defs><radialGradient cx="86" cy="81.97032" r="84.00856" gradientUnits="userSpaceOnUse" id="color-1_YrfteybnYWsa_gr1"><stop offset="0" stop-color="#eed7a2"></stop><stop offset="0.106" stop-color="#f1dcab"></stop><stop offset="0.437" stop-color="#f8e8c3"></stop><stop offset="0.744" stop-color="#fcefd2"></stop><stop offset="1" stop-color="#fef2d7"></stop></radialGradient><linearGradient x1="51.0625" y1="77.9375" x2="51.0625" y2="20.92756" gradientUnits="userSpaceOnUse" id="color-2_YrfteybnYWsa_gr2"><stop offset="0" stop-color="#ff5840"></stop><stop offset="0.007" stop-color="#ff4d3e"></stop><stop offset="0.989" stop-color="#fd4d8e"></stop></linearGradient><linearGradient x1="115.5625" y1="80.625" x2="115.5625" y2="21.84669" gradientUnits="userSpaceOnUse" id="color-3_YrfteybnYWsa_gr3"><stop offset="0" stop-color="#ff5840"></stop><stop offset="0.007" stop-color="#ff4d3e"></stop><stop offset="0.989" stop-color="#fd4d8e"></stop></linearGradient><linearGradient x1="51.0625" y1="150.5" x2="51.0625" y2="93.49006" gradientUnits="userSpaceOnUse" id="color-4_YrfteybnYWsa_gr4"><stop offset="0" stop-color="#ff5840"></stop><stop offset="0.007" stop-color="#ff4d3e"></stop><stop offset="0.989" stop-color="#fd4d8e"></stop></linearGradient><linearGradient x1="115.5625" y1="153.1875" x2="115.5625" y2="94.0625" gradientUnits="userSpaceOnUse" id="color-5_YrfteybnYWsa_gr5"><stop offset="0" stop-color="#ff5840"></stop><stop offset="0.007" stop-color="#ff4d3e"></stop><stop offset="0.989" stop-color="#fd4d8e"></stop></linearGradient></defs><g fill="none" fill-rule="nonzero" stroke="none" stroke-width="1" stroke-linecap="butt" stroke-linejoin="miter" stroke-miterlimit="10" stroke-dasharray="" stroke-dashoffset="0" font-family="none" font-weight="none" font-size="none" text-anchor="none" style="mix-blend-mode: normal"><path d="M0,172v-172h172v172z" fill="none"></path><g><path d="M171.94625,154.29475c-0.56706,5.57656 -5.60075,9.64275 -11.20687,9.64275h-149.98937c-6.28875,0 -11.34394,-5.45831 -10.69625,-11.85456c0.56437,-5.57925 5.60075,-9.64544 11.20688,-9.64544h26.36438c2.98313,0 5.375,-2.41875 5.375,-5.375c0,-2.95625 -2.39187,-5.375 -5.375,-5.375h-26.52294c-3.89956,0 -7.49544,-2.61225 -8.25331,-6.43656c-1.01856,-5.1385 2.93475,-9.68844 7.90125,-9.68844h17.46875c6.67844,0 12.09375,-5.41531 12.09375,-12.09375v0c0,-6.67844 -5.41531,-12.09375 -12.09375,-12.09375h-17.46875c-6.29144,0 -11.34394,-5.45831 -10.69625,-11.85725c0.56437,-5.57656 5.60075,-9.64275 11.20688,-9.64275h23.67688l2.69019,-10.75h-24.1875c-6.28875,0 -11.34394,-5.45831 -10.69625,-11.85456c0.56438,-5.57925 5.60075,-9.64544 11.20688,-9.64544h45.17419h5.375h10.75c5.93669,0 10.75,-4.81331 10.75,-10.75v0c0,-5.93669 -4.81331,-10.75 -10.75,-10.75h-32.25c-2.23063,0 -4.24625,-0.91375 -5.6975,-2.365c-1.57756,-1.57756 -2.52087,-3.82431 -2.3435,-6.28875c0.30906,-4.29462 4.18981,-7.47125 8.49519,-7.47125h86.88956c3.93988,0 7.07888,3.37013 6.69456,7.38794c-0.33594,3.50719 -3.5475,6.04956 -7.07081,6.04956h-2.31125c-2.23062,0 -4.03125,1.80063 -4.03125,4.03125c0,2.23063 1.80063,4.03125 4.03125,4.03125h34.9375c3.93988,0 7.07888,3.37012 6.69456,7.38794c-0.33594,3.50719 -3.5475,6.04956 -7.07081,6.04956h-0.63962c-2.67944,0 -5.1815,1.81406 -5.62494,4.45587c-0.56437,3.35669 2.03981,6.29413 5.29706,6.29413h-0.51063c5.61688,0 10.6425,4.05813 11.20688,9.64813c0.645,6.39625 -4.43438,11.85188 -10.69625,11.85188h-48.375v10.75h36.28125c6.67844,0 12.09375,5.41531 12.09375,12.09375v0c0,6.67844 -5.41531,12.09375 -12.09375,12.09375h-20.15625v10.75h33.24437c4.48812,0 8.6,2.99656 9.53794,7.38794c1.29,6.02269 -3.36744,11.42456 -9.18856,11.42456h-30.60525c-2.84069,0 -5.41531,2.06938 -5.65719,4.89931c-0.14244,1.66356 0.46494,3.19275 1.56413,4.26506c0.97019,0.99437 2.31394,1.58562 3.79206,1.58562h29.5625c6.26456,0 11.34394,5.45831 10.69625,11.85725z" fill="url(#color-1_YrfteybnYWsa_gr1)"></path><path d="M62.55963,51.0625l10.82525,-14.55281c3.05837,-4.11188 2.27362,-9.97869 -1.75225,-13.10425c-4.02587,-3.12556 -9.76906,-2.32469 -12.82744,1.78988l-7.74269,10.40869l-7.74269,-10.40869c-3.05837,-4.11188 -8.80156,-4.91275 -12.82744,-1.78988c-4.02587,3.12556 -4.81062,8.98969 -1.75225,13.10425l10.82525,14.55281l-10.82525,14.55281c-3.05838,4.11187 -2.27363,9.97869 1.75225,13.10425v0c4.02587,3.12288 9.76906,2.322 12.82744,-1.78987l7.74269,-10.40869l7.74269,10.40869c3.05837,4.11187 8.80156,4.91275 12.82744,1.78987v0c4.02587,-3.12287 4.81062,-8.98969 1.75225,-13.10425z" fill="url(#color-2_YrfteybnYWsa_gr2)"></path><path d="M115.5625,80.625c-16.29969,0 -29.5625,-13.18487 -29.5625,-29.3905c0,-16.20562 13.26281,-29.38781 29.5625,-29.38781c16.29969,0 29.5625,13.18488 29.5625,29.3905c0,16.20562 -13.26281,29.38781 -29.5625,29.38781zM115.5625,37.87763c-7.40944,0 -13.4375,5.99312 -13.4375,13.35956c0,7.36644 6.02806,13.35956 13.4375,13.35956c7.40944,0 13.4375,-5.99313 13.4375,-13.35956c0,-7.36644 -6.02806,-13.35956 -13.4375,-13.35956z" fill="url(#color-3_YrfteybnYWsa_gr3)"></path><path d="M62.55963,123.625l10.82525,-14.55281c3.05837,-4.11187 2.27362,-9.97869 -1.75225,-13.10425c-4.02587,-3.12556 -9.76906,-2.32469 -12.82744,1.78987l-7.74269,10.40869l-7.74269,-10.40869c-3.05837,-4.11187 -8.80156,-4.91275 -12.82744,-1.78987c-4.02587,3.12556 -4.81062,8.98969 -1.75225,13.10425l10.82525,14.55281l-10.82525,14.55281c-3.05838,4.11188 -2.27363,9.97869 1.75225,13.10425v0c4.02587,3.12287 9.76906,2.322 12.82744,-1.78987l7.74269,-10.40869l7.74269,10.40869c3.05837,4.11187 8.80156,4.91275 12.82744,1.78987v0c4.02587,-3.12287 4.81062,-8.98969 1.75225,-13.10425z" fill="url(#color-4_YrfteybnYWsa_gr4)"></path><g fill="url(#color-5_YrfteybnYWsa_gr5)"><path d="M115.5625,153.1875c-16.29969,0 -29.5625,-13.26281 -29.5625,-29.5625c0,-16.29969 13.26281,-29.5625 29.5625,-29.5625c16.29969,0 29.5625,13.26281 29.5625,29.5625c0,16.29969 -13.26281,29.5625 -29.5625,29.5625zM115.5625,110.1875c-7.40944,0 -13.4375,6.02806 -13.4375,13.4375c0,7.40944 6.02806,13.4375 13.4375,13.4375c7.40944,0 13.4375,-6.02806 13.4375,-13.4375c0,-7.40944 -6.02806,-13.4375 -13.4375,-13.4375z"></path></g></g></g></svg>
