<?xml version="1.0" encoding="UTF-8" standalone="no" ?>
<!DOCTYPE svg PUBLIC "-//W3C//DTD SVG 1.1//EN" "http://www.w3.org/Graphics/SVG/1.1/DTD/svg11.dtd">
<svg xmlns="http://www.w3.org/2000/svg" xmlns:xlink="http://www.w3.org/1999/xlink" version="1.1" width="64" height="64" viewBox="0 0 64 64" xml:space="preserve">
<desc>Created with Fabric.js 4.6.0</desc>
<defs>
</defs>
<g transform="matrix(0.97 -0.24 -0.24 -0.97 31.43 30)" id="S8AkPp8NXoV9Eiu-t-p_B"  >
<path style="stroke: none; stroke-width: 1; stroke-dasharray: none; stroke-linecap: butt; stroke-dashoffset: 0; stroke-linejoin: miter; stroke-miterlimit: 4; fill: rgb(236,208,180); fill-rule: nonzero; opacity: 1;" vector-effect="non-scaling-stroke"  transform=" translate(-32, -28)" d="M 46.868 9.18 C 46.868 9.18 39.409000000000006 9.705 35.165000000000006 11.934 C 30.922000000000004 14.163 25.263000000000005 13.639 23.463000000000008 10.097999999999999 C 21.662 6.557 18.962 0 12.66 0 C 6.3580000000000005 0 0.058 8 0.058 20.195 C 0.058 20.195 -2.6430000000000002 55.996 28.865 55.996 C 60.373 55.996 63.973 31.998 63.973 29.375000000000004 C 63.973 26.752000000000006 65.388 9.18 46.868 9.18 z" stroke-linecap="round" />
</g>
<g transform="matrix(0.97 -0.24 -0.24 -0.97 31.43 30)" id="tk4qv4uTfLkd5VKFZsCcH"  >
<path style="stroke: none; stroke-width: 1; stroke-dasharray: none; stroke-linecap: butt; stroke-dashoffset: 0; stroke-linejoin: miter; stroke-miterlimit: 4; fill: rgb(237,113,97); fill-rule: nonzero; opacity: 1;" vector-effect="non-scaling-stroke"  transform=" translate(-32, -27.99)" d="M 45.01 13.865 C 45.01 13.865 38.483999999999995 16.314 34.769999999999996 18.224 C 31.056999999999995 20.135 22.105999999999995 17.686 20.530999999999995 14.651 C 18.954999999999995 11.617 18.591999999999995 3.9960000000000004 13.077999999999996 3.9960000000000004 C 7.5639999999999965 3.9960000000000004 4.05 10.854 4.05 21.307 C 4.05 21.307 1.6869999999999998 51.994 29.256 51.994 C 56.825 51.994 59.976 31.424 59.976 29.176 C 59.976 26.927999999999997 61.214 13.865 45.01 13.865 z" stroke-linecap="round" />
</g>
<g transform="matrix(0.97 -0.24 -0.24 -0.97 17.36 31.45)" id="rt7jEwZP-oWAq5w3mUVs9"  >
<path style="stroke: none; stroke-width: 1; stroke-dasharray: none; stroke-linecap: butt; stroke-dashoffset: 0; stroke-linejoin: miter; stroke-miterlimit: 4; fill: rgb(212,101,87); fill-rule: evenodd; opacity: 1;" vector-effect="non-scaling-stroke"  transform=" translate(-18, -30)" d="M 21.657 20.342 C 20.876 19.561 19.61 19.561 18.829 20.342 L 10.344000000000001 28.826 C 9.563 29.607 9.563 30.873 10.344000000000001 31.654 C 11.125000000000002 32.435 12.392000000000001 32.435 13.173000000000002 31.654 L 21.657000000000004 23.17 C 22.438 22.389 22.438 21.123 21.657 20.342 z M 25.657 28.341 C 24.877 27.561 23.61 27.561 22.829 28.341 L 14.344000000000001 36.826 C 13.563 37.606 13.563 38.873 14.344000000000001 39.654 C 15.125000000000002 40.43500000000001 16.392000000000003 40.435 17.173000000000002 39.654 L 25.657000000000004 31.17 C 26.438 30.389 26.438 29.122 25.657 28.341 z" stroke-linecap="round" />
</g>
<g transform="matrix(0.97 -0.24 -0.24 -0.97 44.53 24.67)" id="VewTkkFR06BsdElasf6SV"  >
<path style="stroke: none; stroke-width: 1; stroke-dasharray: none; stroke-linecap: butt; stroke-dashoffset: 0; stroke-linejoin: miter; stroke-miterlimit: 4; fill: rgb(255,255,255); fill-rule: nonzero; opacity: 1;" vector-effect="non-scaling-stroke"  transform=" translate(-8, -8)" d="M 0 8 C 0 3.58172 3.58172 0 8 0 C 12.41828 0 16 3.58172 16 8 C 16 12.41828 12.41828 16 8 16 C 3.58172 16 0 12.41828 0 8 z" stroke-linecap="round" />
</g>
<g transform="matrix(0.97 -0.24 -0.24 -0.97 44.53 24.68)" id="2WclEcFU2naWVJqa0DtAn"  >
<path style="stroke: none; stroke-width: 1; stroke-dasharray: none; stroke-linecap: butt; stroke-dashoffset: 0; stroke-linejoin: miter; stroke-miterlimit: 4; fill: rgb(198,181,207); fill-rule: nonzero; opacity: 1;" vector-effect="non-scaling-stroke"  transform=" translate(-4, -4)" d="M 0 4 C 0 1.79086 1.79086 0 4 0 C 6.20914 0 8 1.79086 8 4 C 8 6.20914 6.20914 8 4 8 C 1.79086 8 0 6.20914 0 4 z" stroke-linecap="round" />
</g>
</svg>